<svg width="19" height="19" viewBox="0 0 19 19" fill="none" xmlns="http://www.w3.org/2000/svg">
<path d="M9.5 0L13.0177 5.14663L19 6.90213L15.1918 11.8382L15.3708 18.0694L9.5 15.9735L3.62919 18.0694L3.80816 11.8382L0 6.90213L5.98234 5.14663L9.5 0ZM9.5 2.94997L7.02116 6.5775L2.80513 7.81359L5.48957 11.2913L5.36222 15.6821L9.5 14.2055L13.6369 15.6821L13.5104 11.2913L16.194 7.81359L11.9788 6.5775L9.5 2.94997V2.94997ZM7.83523 9.57242C7.83523 10.0139 8.01063 10.4374 8.32283 10.7496C8.63504 11.0618 9.05848 11.2372 9.5 11.2372C9.94152 11.2372 10.365 11.0618 10.6772 10.7496C10.9894 10.4374 11.1648 10.0139 11.1648 9.57242H12.8295C12.8295 10.4555 12.4787 11.3023 11.8543 11.9268C11.2299 12.5512 10.383 12.902 9.5 12.902C8.61695 12.902 7.77007 12.5512 7.14566 11.9268C6.52125 11.3023 6.17046 10.4555 6.17046 9.57242H7.83523Z" fill="#FF515A"/>
</svg>
