<svg width="17" height="17" viewBox="0 0 17 17" fill="none" xmlns="http://www.w3.org/2000/svg">
<path d="M1.54039e-05 3.4C1.54039e-05 2.9308 0.386765 2.55 0.843215 2.55H16.1568C16.6226 2.55 17 2.92825 17 3.4V15.3C17 15.7692 16.6132 16.15 16.1568 16.15H0.843215C0.731974 16.1498 0.621871 16.1276 0.519226 16.0847C0.416581 16.0418 0.323414 15.9791 0.245071 15.9001C0.166728 15.8211 0.104752 15.7275 0.0626986 15.6245C0.0206456 15.5215 -0.000656294 15.4112 1.54039e-05 15.3V3.4ZM1.70001 4.25V14.45H15.3V4.25H1.70001ZM10.2 11.9C10.8763 11.9 11.5249 11.6313 12.0031 11.1531C12.4813 10.6749 12.75 10.0263 12.75 9.34999C12.75 8.67369 12.4813 8.02509 12.0031 7.54687C11.5249 7.06865 10.8763 6.79999 10.2 6.79999C9.5237 6.79999 8.8751 7.06865 8.39688 7.54687C7.91867 8.02509 7.65001 8.67369 7.65001 9.34999C7.65001 10.0263 7.91867 10.6749 8.39688 11.1531C8.8751 11.6313 9.5237 11.9 10.2 11.9V11.9ZM10.2 13.6C9.07284 13.6 7.99183 13.1522 7.1948 12.3552C6.39778 11.5582 5.95001 10.4772 5.95001 9.34999C5.95001 8.22282 6.39778 7.14182 7.1948 6.34479C7.99183 5.54776 9.07284 5.1 10.2 5.1C11.3272 5.1 12.4082 5.54776 13.2052 6.34479C14.0022 7.14182 14.45 8.22282 14.45 9.34999C14.45 10.4772 14.0022 11.5582 13.2052 12.3552C12.4082 13.1522 11.3272 13.6 10.2 13.6V13.6ZM1.70001 0H6.80001V1.7H1.70001V0Z" fill="#FF515A"/>
</svg>
